<svg viewBox="0 0 50 50" fill="white" >
	<path d="M25 2C12.316 2 2 12.316 2 25s10.316 23 23 23 23-10.316 23-23S37.684 2 25 2zm0 2c5.031 0 9.656 1.781 13.273 4.746l-2.601 3.04A16.908 16.908 0 0025 8c-4.04 0-7.754 1.422-10.672 3.785l-2.601-3.039A20.876 20.876 0 0125 4zm12.969 28.527l-8.137-7.75L26 15.797v15.2l7.914 7.292A15.932 15.932 0 0125 41c-3.3 0-6.367-1-8.914-2.715L24 30.996v-15.2l-3.832 8.981-8.137 7.75A14.892 14.892 0 0110 25c0-8.27 6.73-15 15-15s15 6.73 15 15a14.9 14.9 0 01-2.031 7.527z" />
</svg>